<mxfile host="Electron" modified="2023-08-16T14:25:09.638Z" agent="Mozilla/5.0 (Macintosh; Intel Mac OS X 10_15_7) AppleWebKit/537.36 (KHTML, like Gecko) draw.io/21.6.1 Chrome/112.0.5615.204 Electron/24.6.1 Safari/537.36" etag="5Gv0R2nb5bKfZVVzJiZa" version="21.6.1" type="device">
  <diagram name="Page-1" id="PQUN3sTM3qoK-xzont0Q">
    <mxGraphModel dx="4280" dy="2883" grid="0" gridSize="10" guides="1" tooltips="1" connect="1" arrows="1" fold="1" page="1" pageScale="1" pageWidth="1100" pageHeight="850" background="#ffffff" math="0" shadow="0">
      <root>
        <mxCell id="0" />
        <mxCell id="1" parent="0" />
        <mxCell id="gqnK_mhJk_bRx7Jhm1hX-1" value="Other Background" parent="0" />
        <mxCell id="a7kPFaT3OwfycQSpi0VV-3" value="" style="rounded=0;whiteSpace=wrap;html=1;strokeColor=none;" parent="gqnK_mhJk_bRx7Jhm1hX-1" vertex="1">
          <mxGeometry x="-240" y="-26" width="1337" height="1150" as="geometry" />
        </mxCell>
        <mxCell id="gqnK_mhJk_bRx7Jhm1hX-2" value="Purple" parent="0" />
        <mxCell id="5p0VI-X1nrPfKA4SYcL8-36" value="" style="rounded=1;whiteSpace=wrap;html=1;fillColor=#CCCCFF;" parent="gqnK_mhJk_bRx7Jhm1hX-2" vertex="1">
          <mxGeometry x="-200" y="190" width="900" height="700" as="geometry" />
        </mxCell>
        <mxCell id="5p0VI-X1nrPfKA4SYcL8-37" value="The AWS services are also free. However these AWS Services provision other services which may cost money" style="text;strokeColor=none;fillColor=default;align=left;verticalAlign=middle;rounded=0;spacing=0;spacingBottom=0;labelBackgroundColor=#CCCCFF;fontColor=default;whiteSpace=wrap;fontSize=40;" parent="gqnK_mhJk_bRx7Jhm1hX-2" vertex="1">
          <mxGeometry x="-151" y="352" width="294" height="364" as="geometry" />
        </mxCell>
        <object label="Services" id="gqnK_mhJk_bRx7Jhm1hX-3">
          <mxCell parent="0" />
        </object>
        <mxCell id="5p0VI-X1nrPfKA4SYcL8-1" value="" style="sketch=0;points=[[0,0,0],[0.25,0,0],[0.5,0,0],[0.75,0,0],[1,0,0],[0,1,0],[0.25,1,0],[0.5,1,0],[0.75,1,0],[1,1,0],[0,0.25,0],[0,0.5,0],[0,0.75,0],[1,0.25,0],[1,0.5,0],[1,0.75,0]];outlineConnect=0;fontColor=#232F3E;gradientColor=#F54749;gradientDirection=north;fillColor=#C7131F;strokeColor=#ffffff;dashed=0;verticalLabelPosition=bottom;verticalAlign=top;align=center;html=1;fontSize=12;fontStyle=0;aspect=fixed;shape=mxgraph.aws4.resourceIcon;resIcon=mxgraph.aws4.identity_and_access_management;movable=0;resizable=0;rotatable=0;deletable=0;editable=0;locked=1;connectable=0;" parent="gqnK_mhJk_bRx7Jhm1hX-3" vertex="1">
          <mxGeometry x="201" width="80" height="80" as="geometry" />
        </mxCell>
        <mxCell id="5p0VI-X1nrPfKA4SYcL8-3" value="" style="sketch=0;points=[[0,0,0],[0.25,0,0],[0.5,0,0],[0.75,0,0],[1,0,0],[0,1,0],[0.25,1,0],[0.5,1,0],[0.75,1,0],[1,1,0],[0,0.25,0],[0,0.5,0],[0,0.75,0],[1,0.25,0],[1,0.5,0],[1,0.75,0]];outlineConnect=0;fontColor=#232F3E;gradientColor=#945DF2;gradientDirection=north;fillColor=#5A30B5;strokeColor=#ffffff;dashed=0;verticalLabelPosition=bottom;verticalAlign=top;align=center;html=1;fontSize=12;fontStyle=0;aspect=fixed;shape=mxgraph.aws4.resourceIcon;resIcon=mxgraph.aws4.vpc;movable=0;resizable=0;rotatable=0;deletable=0;editable=0;locked=1;connectable=0;" parent="gqnK_mhJk_bRx7Jhm1hX-3" vertex="1">
          <mxGeometry x="201" y="100" width="78" height="78" as="geometry" />
        </mxCell>
        <mxCell id="5p0VI-X1nrPfKA4SYcL8-8" value="" style="sketch=0;points=[[0,0,0],[0.25,0,0],[0.5,0,0],[0.75,0,0],[1,0,0],[0,1,0],[0.25,1,0],[0.5,1,0],[0.75,1,0],[1,1,0],[0,0.25,0],[0,0.5,0],[0,0.75,0],[1,0.25,0],[1,0.5,0],[1,0.75,0]];points=[[0,0,0],[0.25,0,0],[0.5,0,0],[0.75,0,0],[1,0,0],[0,1,0],[0.25,1,0],[0.5,1,0],[0.75,1,0],[1,1,0],[0,0.25,0],[0,0.5,0],[0,0.75,0],[1,0.25,0],[1,0.5,0],[1,0.75,0]];outlineConnect=0;fontColor=#232F3E;gradientColor=#F34482;gradientDirection=north;fillColor=#BC1356;strokeColor=#ffffff;dashed=0;verticalLabelPosition=bottom;verticalAlign=top;align=center;html=1;fontSize=12;fontStyle=0;aspect=fixed;shape=mxgraph.aws4.resourceIcon;resIcon=mxgraph.aws4.autoscaling;movable=0;resizable=0;rotatable=0;deletable=0;editable=0;locked=1;connectable=0;" parent="gqnK_mhJk_bRx7Jhm1hX-3" vertex="1">
          <mxGeometry x="201" y="202" width="78" height="78" as="geometry" />
        </mxCell>
        <mxCell id="5p0VI-X1nrPfKA4SYcL8-27" value="" style="sketch=0;points=[[0,0,0],[0.25,0,0],[0.5,0,0],[0.75,0,0],[1,0,0],[0,1,0],[0.25,1,0],[0.5,1,0],[0.75,1,0],[1,1,0],[0,0.25,0],[0,0.5,0],[0,0.75,0],[1,0.25,0],[1,0.5,0],[1,0.75,0]];points=[[0,0,0],[0.25,0,0],[0.5,0,0],[0.75,0,0],[1,0,0],[0,1,0],[0.25,1,0],[0.5,1,0],[0.75,1,0],[1,1,0],[0,0.25,0],[0,0.5,0],[0,0.75,0],[1,0.25,0],[1,0.5,0],[1,0.75,0]];outlineConnect=0;fontColor=#232F3E;gradientColor=#F34482;gradientDirection=north;fillColor=#BC1356;strokeColor=#ffffff;dashed=0;verticalLabelPosition=bottom;verticalAlign=top;align=center;html=1;fontSize=12;fontStyle=0;aspect=fixed;shape=mxgraph.aws4.resourceIcon;resIcon=mxgraph.aws4.cloudformation;movable=0;resizable=0;rotatable=0;deletable=0;editable=0;locked=1;connectable=0;" parent="gqnK_mhJk_bRx7Jhm1hX-3" vertex="1">
          <mxGeometry x="201" y="301" width="78" height="78" as="geometry" />
        </mxCell>
        <mxCell id="5p0VI-X1nrPfKA4SYcL8-28" value="" style="sketch=0;points=[[0,0,0],[0.25,0,0],[0.5,0,0],[0.75,0,0],[1,0,0],[0,1,0],[0.25,1,0],[0.5,1,0],[0.75,1,0],[1,1,0],[0,0.25,0],[0,0.5,0],[0,0.75,0],[1,0.25,0],[1,0.5,0],[1,0.75,0]];outlineConnect=0;fontColor=#232F3E;gradientColor=#F78E04;gradientDirection=north;fillColor=#D05C17;strokeColor=#ffffff;dashed=0;verticalLabelPosition=bottom;verticalAlign=top;align=center;html=1;fontSize=12;fontStyle=0;aspect=fixed;shape=mxgraph.aws4.resourceIcon;resIcon=mxgraph.aws4.elastic_beanstalk;movable=0;resizable=0;rotatable=0;deletable=0;editable=0;locked=1;connectable=0;" parent="gqnK_mhJk_bRx7Jhm1hX-3" vertex="1">
          <mxGeometry x="201" y="401" width="78" height="78" as="geometry" />
        </mxCell>
        <mxCell id="5p0VI-X1nrPfKA4SYcL8-29" value="" style="sketch=0;points=[[0,0,0],[0.25,0,0],[0.5,0,0],[0.75,0,0],[1,0,0],[0,1,0],[0.25,1,0],[0.5,1,0],[0.75,1,0],[1,1,0],[0,0.25,0],[0,0.5,0],[0,0.75,0],[1,0.25,0],[1,0.5,0],[1,0.75,0]];points=[[0,0,0],[0.25,0,0],[0.5,0,0],[0.75,0,0],[1,0,0],[0,1,0],[0.25,1,0],[0.5,1,0],[0.75,1,0],[1,1,0],[0,0.25,0],[0,0.5,0],[0,0.75,0],[1,0.25,0],[1,0.5,0],[1,0.75,0]];outlineConnect=0;fontColor=#232F3E;gradientColor=#F34482;gradientDirection=north;fillColor=#BC1356;strokeColor=#ffffff;dashed=0;verticalLabelPosition=bottom;verticalAlign=top;align=center;html=1;fontSize=12;fontStyle=0;aspect=fixed;shape=mxgraph.aws4.resourceIcon;resIcon=mxgraph.aws4.opsworks;movable=0;resizable=0;rotatable=0;deletable=0;editable=0;locked=1;connectable=0;" parent="gqnK_mhJk_bRx7Jhm1hX-3" vertex="1">
          <mxGeometry x="201" y="502" width="78" height="78" as="geometry" />
        </mxCell>
        <mxCell id="5p0VI-X1nrPfKA4SYcL8-30" value="" style="sketch=0;points=[[0,0,0],[0.25,0,0],[0.5,0,0],[0.75,0,0],[1,0,0],[0,1,0],[0.25,1,0],[0.5,1,0],[0.75,1,0],[1,1,0],[0,0.25,0],[0,0.5,0],[0,0.75,0],[1,0.25,0],[1,0.5,0],[1,0.75,0]];outlineConnect=0;fontColor=#232F3E;gradientColor=#F54749;gradientDirection=north;fillColor=#C7131F;strokeColor=#ffffff;dashed=0;verticalLabelPosition=bottom;verticalAlign=top;align=center;html=1;fontSize=12;fontStyle=0;aspect=fixed;shape=mxgraph.aws4.resourceIcon;resIcon=mxgraph.aws4.amplify;movable=0;resizable=0;rotatable=0;deletable=0;editable=0;locked=1;connectable=0;" parent="gqnK_mhJk_bRx7Jhm1hX-3" vertex="1">
          <mxGeometry x="201" y="602" width="78" height="78" as="geometry" />
        </mxCell>
        <mxCell id="5p0VI-X1nrPfKA4SYcL8-31" value="" style="sketch=0;points=[[0,0,0],[0.25,0,0],[0.5,0,0],[0.75,0,0],[1,0,0],[0,1,0],[0.25,1,0],[0.5,1,0],[0.75,1,0],[1,1,0],[0,0.25,0],[0,0.5,0],[0,0.75,0],[1,0.25,0],[1,0.5,0],[1,0.75,0]];outlineConnect=0;fontColor=#232F3E;gradientColor=#FF4F8B;gradientDirection=north;fillColor=#BC1356;strokeColor=#ffffff;dashed=0;verticalLabelPosition=bottom;verticalAlign=top;align=center;html=1;fontSize=12;fontStyle=0;aspect=fixed;shape=mxgraph.aws4.resourceIcon;resIcon=mxgraph.aws4.appsync;movable=0;resizable=0;rotatable=0;deletable=0;editable=0;locked=1;connectable=0;" parent="gqnK_mhJk_bRx7Jhm1hX-3" vertex="1">
          <mxGeometry x="201" y="701" width="78" height="78" as="geometry" />
        </mxCell>
        <mxCell id="5p0VI-X1nrPfKA4SYcL8-32" value="" style="sketch=0;points=[[0,0,0],[0.25,0,0],[0.5,0,0],[0.75,0,0],[1,0,0],[0,1,0],[0.25,1,0],[0.5,1,0],[0.75,1,0],[1,1,0],[0,0.25,0],[0,0.5,0],[0,0.75,0],[1,0.25,0],[1,0.5,0],[1,0.75,0]];outlineConnect=0;fontColor=#232F3E;gradientColor=#4D72F3;gradientDirection=north;fillColor=#3334B9;strokeColor=#ffffff;dashed=0;verticalLabelPosition=bottom;verticalAlign=top;align=center;html=1;fontSize=12;fontStyle=0;aspect=fixed;shape=mxgraph.aws4.resourceIcon;resIcon=mxgraph.aws4.codestar;movable=0;resizable=0;rotatable=0;deletable=0;editable=0;locked=1;connectable=0;" parent="gqnK_mhJk_bRx7Jhm1hX-3" vertex="1">
          <mxGeometry x="201" y="800" width="78" height="78" as="geometry" />
        </mxCell>
        <mxCell id="5p0VI-X1nrPfKA4SYcL8-34" value="" style="sketch=0;points=[[0,0,0],[0.25,0,0],[0.5,0,0],[0.75,0,0],[1,0,0],[0,1,0],[0.25,1,0],[0.5,1,0],[0.75,1,0],[1,1,0],[0,0.25,0],[0,0.5,0],[0,0.75,0],[1,0.25,0],[1,0.5,0],[1,0.75,0]];outlineConnect=0;fontColor=#232F3E;gradientColor=#F54749;gradientDirection=north;fillColor=#C7131F;strokeColor=#ffffff;dashed=0;verticalLabelPosition=bottom;verticalAlign=top;align=center;html=1;fontSize=12;fontStyle=0;aspect=fixed;shape=mxgraph.aws4.resourceIcon;resIcon=mxgraph.aws4.organizations;movable=0;resizable=0;rotatable=0;deletable=0;editable=0;locked=1;connectable=0;" parent="gqnK_mhJk_bRx7Jhm1hX-3" vertex="1">
          <mxGeometry x="201" y="900" width="78" height="78" as="geometry" />
        </mxCell>
        <mxCell id="5p0VI-X1nrPfKA4SYcL8-35" value="" style="sketch=0;points=[[0,0,0],[0.25,0,0],[0.5,0,0],[0.75,0,0],[1,0,0],[0,1,0],[0.25,1,0],[0.5,1,0],[0.75,1,0],[1,1,0],[0,0.25,0],[0,0.5,0],[0,0.75,0],[1,0.25,0],[1,0.5,0],[1,0.75,0]];outlineConnect=0;fontColor=#232F3E;gradientColor=#60A337;gradientDirection=north;fillColor=#277116;strokeColor=#ffffff;dashed=0;verticalLabelPosition=bottom;verticalAlign=top;align=center;html=1;fontSize=12;fontStyle=0;aspect=fixed;shape=mxgraph.aws4.resourceIcon;resIcon=mxgraph.aws4.cost_explorer;movable=0;resizable=0;rotatable=0;deletable=0;editable=0;locked=1;connectable=0;" parent="gqnK_mhJk_bRx7Jhm1hX-3" vertex="1">
          <mxGeometry x="201" y="1001" width="78" height="78" as="geometry" />
        </mxCell>
        <mxCell id="5p0VI-X1nrPfKA4SYcL8-2" value="&lt;font style=&quot;font-size: 40px;&quot;&gt;&lt;span&gt;Identity and Access Management&lt;/span&gt;&lt;/font&gt;" style="text;html=1;strokeColor=none;fillColor=none;align=left;verticalAlign=bottom;whiteSpace=wrap;rounded=0;spacingBottom=5;spacingLeft=0;movable=1;resizable=1;rotatable=1;deletable=1;editable=1;locked=0;connectable=1;fontStyle=0" parent="gqnK_mhJk_bRx7Jhm1hX-3" vertex="1">
          <mxGeometry x="325" width="675" height="80" as="geometry" />
        </mxCell>
        <mxCell id="5p0VI-X1nrPfKA4SYcL8-4" value="&lt;font style=&quot;font-size: 40px;&quot;&gt;&lt;span&gt;Amazon VPC&lt;/span&gt;&lt;/font&gt;" style="text;html=1;strokeColor=none;fillColor=none;align=left;verticalAlign=bottom;whiteSpace=wrap;rounded=0;spacingBottom=5;spacingLeft=0;movable=1;resizable=1;rotatable=1;deletable=1;editable=1;locked=0;connectable=1;fontStyle=0" parent="gqnK_mhJk_bRx7Jhm1hX-3" vertex="1">
          <mxGeometry x="326" y="100" width="691" height="80" as="geometry" />
        </mxCell>
        <mxCell id="5p0VI-X1nrPfKA4SYcL8-6" value="&lt;font style=&quot;font-size: 40px;&quot;&gt;&lt;span&gt;Auto Scaling&lt;/span&gt;&lt;/font&gt;" style="text;html=1;strokeColor=none;fillColor=none;align=left;verticalAlign=bottom;whiteSpace=wrap;rounded=0;spacingBottom=5;spacingLeft=0;movable=1;resizable=1;rotatable=1;deletable=1;editable=1;locked=0;connectable=1;fontStyle=0" parent="gqnK_mhJk_bRx7Jhm1hX-3" vertex="1">
          <mxGeometry x="325" y="200" width="720" height="80" as="geometry" />
        </mxCell>
        <mxCell id="5p0VI-X1nrPfKA4SYcL8-9" value="&lt;font style=&quot;font-size: 40px;&quot;&gt;&lt;span&gt;CloudFormation&lt;/span&gt;&lt;/font&gt;" style="text;html=1;strokeColor=none;fillColor=none;align=left;verticalAlign=bottom;whiteSpace=wrap;rounded=0;spacingBottom=5;spacingLeft=0;movable=1;resizable=1;rotatable=1;deletable=1;editable=1;locked=0;connectable=1;fontStyle=0" parent="gqnK_mhJk_bRx7Jhm1hX-3" vertex="1">
          <mxGeometry x="325" y="300" width="720" height="80" as="geometry" />
        </mxCell>
        <mxCell id="5p0VI-X1nrPfKA4SYcL8-12" value="&lt;font style=&quot;font-size: 40px;&quot;&gt;&lt;span&gt;Elastic Beanstalk&lt;/span&gt;&lt;/font&gt;" style="text;html=1;strokeColor=none;fillColor=none;align=left;verticalAlign=bottom;whiteSpace=wrap;rounded=0;spacingBottom=5;spacingLeft=0;movable=1;resizable=1;rotatable=1;deletable=1;editable=1;locked=0;connectable=1;fontStyle=0" parent="gqnK_mhJk_bRx7Jhm1hX-3" vertex="1">
          <mxGeometry x="325" y="400" width="720" height="80" as="geometry" />
        </mxCell>
        <mxCell id="5p0VI-X1nrPfKA4SYcL8-14" value="&lt;font style=&quot;font-size: 40px;&quot;&gt;&lt;span&gt;Opswork&lt;/span&gt;&lt;/font&gt;" style="text;html=1;strokeColor=none;fillColor=none;align=left;verticalAlign=bottom;whiteSpace=wrap;rounded=0;spacingBottom=5;spacingLeft=0;movable=1;resizable=1;rotatable=1;deletable=1;editable=1;locked=0;connectable=1;fontStyle=0" parent="gqnK_mhJk_bRx7Jhm1hX-3" vertex="1">
          <mxGeometry x="325" y="500" width="720" height="80" as="geometry" />
        </mxCell>
        <mxCell id="5p0VI-X1nrPfKA4SYcL8-15" value="&lt;font style=&quot;font-size: 40px;&quot;&gt;&lt;span&gt;Amplify&lt;/span&gt;&lt;/font&gt;" style="text;html=1;strokeColor=none;fillColor=none;align=left;verticalAlign=bottom;whiteSpace=wrap;rounded=0;spacingBottom=5;spacingLeft=0;movable=1;resizable=1;rotatable=1;deletable=1;editable=1;locked=0;connectable=1;fontStyle=0" parent="gqnK_mhJk_bRx7Jhm1hX-3" vertex="1">
          <mxGeometry x="325" y="600" width="720" height="80" as="geometry" />
        </mxCell>
        <mxCell id="5p0VI-X1nrPfKA4SYcL8-17" value="&lt;font style=&quot;font-size: 40px;&quot;&gt;&lt;span&gt;AppSync&lt;/span&gt;&lt;/font&gt;" style="text;html=1;strokeColor=none;fillColor=none;align=left;verticalAlign=bottom;whiteSpace=wrap;rounded=0;spacingBottom=5;spacingLeft=0;movable=1;resizable=1;rotatable=1;deletable=1;editable=1;locked=0;connectable=1;fontStyle=0" parent="gqnK_mhJk_bRx7Jhm1hX-3" vertex="1">
          <mxGeometry x="325" y="700" width="720" height="80" as="geometry" />
        </mxCell>
        <mxCell id="5p0VI-X1nrPfKA4SYcL8-20" value="&lt;font style=&quot;font-size: 40px;&quot;&gt;&lt;span&gt;CodeStar&lt;/span&gt;&lt;/font&gt;" style="text;html=1;strokeColor=none;fillColor=none;align=left;verticalAlign=bottom;whiteSpace=wrap;rounded=0;spacingBottom=5;spacingLeft=0;movable=1;resizable=1;rotatable=1;deletable=1;editable=1;locked=0;connectable=1;fontStyle=0" parent="gqnK_mhJk_bRx7Jhm1hX-3" vertex="1">
          <mxGeometry x="325" y="800" width="720" height="80" as="geometry" />
        </mxCell>
        <mxCell id="5p0VI-X1nrPfKA4SYcL8-22" value="&lt;span style=&quot;border-color: var(--border-color); font-size: 40px;&quot;&gt;Organizations &amp;amp; Consolidated Billing&lt;/span&gt;" style="text;html=1;strokeColor=none;fillColor=none;align=left;verticalAlign=bottom;whiteSpace=wrap;rounded=0;spacingBottom=5;spacingLeft=0;movable=1;resizable=1;rotatable=1;deletable=1;editable=1;locked=0;connectable=1;fontStyle=0" parent="gqnK_mhJk_bRx7Jhm1hX-3" vertex="1">
          <mxGeometry x="325" y="900" width="769" height="80" as="geometry" />
        </mxCell>
        <mxCell id="5p0VI-X1nrPfKA4SYcL8-23" value="&lt;span style=&quot;font-size: 40px;&quot;&gt;&lt;span&gt;Cost Explorer&lt;/span&gt;&lt;/span&gt;" style="text;html=1;strokeColor=none;fillColor=none;align=left;verticalAlign=bottom;whiteSpace=wrap;rounded=0;spacingBottom=5;spacingLeft=0;movable=1;resizable=1;rotatable=1;deletable=1;editable=1;locked=0;connectable=1;fontStyle=0" parent="gqnK_mhJk_bRx7Jhm1hX-3" vertex="1">
          <mxGeometry x="325" y="1000" width="781" height="80" as="geometry" />
        </mxCell>
      </root>
    </mxGraphModel>
  </diagram>
</mxfile>
